<svg width="1200" height="900" viewBox="0 0 1200 900" fill="none" xmlns="http://www.w3.org/2000/svg">
  <rect width="1200" height="900" fill="url(#bg)"/>
  <rect y="620" width="1200" height="280" fill="url(#river)"/>
  <path d="M0 650C120 620 200 590 318 602C418 612 486 663 578 668C676 674 742 612 840 600C972 583 1066 623 1200 590V900H0V650Z" fill="url(#waterGlow)" opacity="0.75"/>
  <rect x="82" y="258" width="110" height="360" rx="6" fill="#101A32"/>
  <rect x="214" y="188" width="144" height="430" rx="6" fill="#172544"/>
  <rect x="386" y="280" width="120" height="338" rx="6" fill="#0D1731"/>
  <rect x="528" y="144" width="158" height="474" rx="6" fill="#13203D"/>
  <rect x="716" y="230" width="132" height="388" rx="6" fill="#101B36"/>
  <rect x="874" y="164" width="176" height="454" rx="6" fill="#162344"/>
  <rect x="1074" y="320" width="86" height="298" rx="6" fill="#101A32"/>
  <g opacity="0.95">
    <rect x="108" y="292" width="14" height="14" fill="#FFD76A"/>
    <rect x="140" y="292" width="14" height="14" fill="#FFD76A"/>
    <rect x="108" y="330" width="14" height="14" fill="#FFD76A"/>
    <rect x="140" y="330" width="14" height="14" fill="#FFD76A"/>
    <rect x="244" y="226" width="16" height="16" fill="#FFE08C"/>
    <rect x="278" y="226" width="16" height="16" fill="#FFE08C"/>
    <rect x="312" y="226" width="16" height="16" fill="#FFE08C"/>
    <rect x="244" y="266" width="16" height="16" fill="#FFE08C"/>
    <rect x="278" y="266" width="16" height="16" fill="#FFE08C"/>
    <rect x="312" y="266" width="16" height="16" fill="#FFE08C"/>
    <rect x="562" y="186" width="18" height="18" fill="#FFC857"/>
    <rect x="600" y="186" width="18" height="18" fill="#FFC857"/>
    <rect x="638" y="186" width="18" height="18" fill="#FFC857"/>
    <rect x="562" y="230" width="18" height="18" fill="#FFC857"/>
    <rect x="600" y="230" width="18" height="18" fill="#FFC857"/>
    <rect x="638" y="230" width="18" height="18" fill="#FFC857"/>
    <rect x="916" y="208" width="18" height="18" fill="#FFE08C"/>
    <rect x="954" y="208" width="18" height="18" fill="#FFE08C"/>
    <rect x="992" y="208" width="18" height="18" fill="#FFE08C"/>
    <rect x="916" y="250" width="18" height="18" fill="#FFE08C"/>
    <rect x="954" y="250" width="18" height="18" fill="#FFE08C"/>
    <rect x="992" y="250" width="18" height="18" fill="#FFE08C"/>
  </g>
  <circle cx="880" cy="172" r="58" fill="#D3E8FF" opacity="0.88"/>
  <path d="M220 728C338 684 398 684 510 738C618 790 702 796 850 748C964 712 1030 714 1158 760" stroke="#FFD76A" stroke-width="10" stroke-linecap="round" opacity="0.86"/>
  <path d="M210 776C316 742 420 744 518 784C648 838 770 838 942 764" stroke="#5DD5FF" stroke-width="6" stroke-linecap="round" opacity="0.75"/>
  <defs>
    <linearGradient id="bg" x1="600" y1="0" x2="600" y2="900" gradientUnits="userSpaceOnUse">
      <stop stop-color="#4567C5"/>
      <stop offset="0.42" stop-color="#2B3A74"/>
      <stop offset="1" stop-color="#0B1120"/>
    </linearGradient>
    <linearGradient id="river" x1="600" y1="620" x2="600" y2="900" gradientUnits="userSpaceOnUse">
      <stop stop-color="#11284D"/>
      <stop offset="1" stop-color="#081120"/>
    </linearGradient>
    <linearGradient id="waterGlow" x1="600" y1="592" x2="600" y2="900" gradientUnits="userSpaceOnUse">
      <stop stop-color="#4BA3FF"/>
      <stop offset="1" stop-color="#0D1830" stop-opacity="0"/>
    </linearGradient>
  </defs>
</svg>
