<svg width="1200" height="900" viewBox="0 0 1200 900" fill="none" xmlns="http://www.w3.org/2000/svg">
  <rect width="1200" height="900" fill="url(#sky)"/>
  <circle cx="896" cy="186" r="92" fill="#FFF1B0" opacity="0.95"/>
  <path d="M0 532C154 468 272 442 430 472C570 500 652 556 770 566C918 578 1020 516 1200 452V900H0V532Z" fill="url(#hill1)"/>
  <path d="M0 628C150 566 284 550 430 580C572 612 662 684 804 692C954 700 1058 648 1200 600V900H0V628Z" fill="url(#hill2)"/>
  <path d="M0 738C144 706 284 710 422 748C560 786 676 832 844 816C974 804 1086 768 1200 732V900H0V738Z" fill="url(#ground)"/>
  <rect x="128" y="244" width="18" height="438" fill="#4B3426"/>
  <rect x="208" y="194" width="20" height="498" fill="#553A26"/>
  <rect x="944" y="188" width="20" height="504" fill="#4E3728"/>
  <rect x="1032" y="230" width="18" height="460" fill="#4B3426"/>
  <circle cx="138" cy="218" r="74" fill="#6CA65C"/>
  <circle cx="240" cy="168" r="92" fill="#729E4F"/>
  <circle cx="934" cy="160" r="88" fill="#7BAB55"/>
  <circle cx="1044" cy="212" r="76" fill="#648E47"/>
  <path d="M316 674C468 584 550 538 682 524C788 512 886 542 1012 630" stroke="#FFF4BA" stroke-width="16" stroke-linecap="round" opacity="0.72"/>
  <defs>
    <linearGradient id="sky" x1="600" y1="0" x2="600" y2="900" gradientUnits="userSpaceOnUse">
      <stop stop-color="#C7F0FF"/>
      <stop offset="0.48" stop-color="#95D5B7"/>
      <stop offset="1" stop-color="#5E8F58"/>
    </linearGradient>
    <linearGradient id="hill1" x1="600" y1="452" x2="600" y2="900" gradientUnits="userSpaceOnUse">
      <stop stop-color="#88B96F"/>
      <stop offset="1" stop-color="#4C6E3A"/>
    </linearGradient>
    <linearGradient id="hill2" x1="600" y1="580" x2="600" y2="900" gradientUnits="userSpaceOnUse">
      <stop stop-color="#5D8B46"/>
      <stop offset="1" stop-color="#355326"/>
    </linearGradient>
    <linearGradient id="ground" x1="600" y1="732" x2="600" y2="900" gradientUnits="userSpaceOnUse">
      <stop stop-color="#7C8F49"/>
      <stop offset="1" stop-color="#2B3B1B"/>
    </linearGradient>
  </defs>
</svg>
