<svg width="1200" height="900" viewBox="0 0 1200 900" fill="none" xmlns="http://www.w3.org/2000/svg">
  <rect width="1200" height="900" fill="url(#bg)"/>
  <rect x="94" y="108" width="310" height="592" rx="16" fill="#F3D7C8" opacity="0.28"/>
  <rect x="826" y="152" width="244" height="468" rx="16" fill="#D0B2A5" opacity="0.26"/>
  <path d="M0 738C140 690 282 670 434 694C594 720 742 790 914 786C1030 784 1128 754 1200 726V900H0V738Z" fill="#815A4B"/>
  <ellipse cx="610" cy="784" rx="164" ry="42" fill="#5C3E35" opacity="0.3"/>
  <path d="M574 324C574 260 626 208 690 208C754 208 806 260 806 324V490H574V324Z" fill="#2F2330"/>
  <ellipse cx="690" cy="254" rx="98" ry="92" fill="#2A1E2B"/>
  <ellipse cx="690" cy="340" rx="78" ry="94" fill="#F0C6B1"/>
  <path d="M626 412C664 442 714 442 752 412V524H626V412Z" fill="#E9B79F"/>
  <path d="M614 494C648 520 728 522 766 494L856 704H522L614 494Z" fill="#F2E7E2"/>
  <path d="M650 322C650 306 662 294 678 294C694 294 706 306 706 322V350H650V322Z" fill="#E6B09B"/>
  <path d="M646 386C674 400 706 400 734 386" stroke="#B76E63" stroke-width="8" stroke-linecap="round"/>
  <circle cx="660" cy="332" r="8" fill="#3F2E32"/>
  <circle cx="726" cy="332" r="8" fill="#3F2E32"/>
  <defs>
    <linearGradient id="bg" x1="600" y1="0" x2="600" y2="900" gradientUnits="userSpaceOnUse">
      <stop stop-color="#C89A89"/>
      <stop offset="0.44" stop-color="#9A6C64"/>
      <stop offset="1" stop-color="#5A3D3E"/>
    </linearGradient>
  </defs>
</svg>
