<svg width="1200" height="900" viewBox="0 0 1200 900" fill="none" xmlns="http://www.w3.org/2000/svg">
  <rect width="1200" height="900" fill="url(#bg)"/>
  <rect x="0" y="590" width="1200" height="310" fill="#2E2A2A"/>
  <rect x="136" y="124" width="340" height="560" rx="12" fill="#3F312F"/>
  <rect x="724" y="82" width="286" height="602" rx="12" fill="#413B46"/>
  <rect x="176" y="172" width="262" height="430" rx="10" fill="url(#window)"/>
  <rect x="766" y="138" width="204" height="458" rx="10" fill="url(#window2)"/>
  <path d="M508 620C558 566 600 530 676 486C740 450 806 418 898 384" stroke="#F5C56C" stroke-width="12" stroke-linecap="round"/>
  <ellipse cx="562" cy="700" rx="80" ry="26" fill="#161616" opacity="0.34"/>
  <path d="M548 496C582 496 610 522 610 560V706H514V560C514 522 542 496 576 496H548Z" fill="#121212"/>
  <circle cx="564" cy="446" r="42" fill="#1C1C1C"/>
  <path d="M558 536L530 700" stroke="#181818" stroke-width="12" stroke-linecap="round"/>
  <path d="M592 536L620 700" stroke="#181818" stroke-width="12" stroke-linecap="round"/>
  <path d="M514 582L462 642" stroke="#181818" stroke-width="12" stroke-linecap="round"/>
  <path d="M610 582L674 646" stroke="#181818" stroke-width="12" stroke-linecap="round"/>
  <rect x="438" y="590" width="310" height="18" fill="#9A7757"/>
  <defs>
    <linearGradient id="bg" x1="600" y1="0" x2="600" y2="900" gradientUnits="userSpaceOnUse">
      <stop stop-color="#E18A56"/>
      <stop offset="0.38" stop-color="#874B44"/>
      <stop offset="1" stop-color="#30262C"/>
    </linearGradient>
    <linearGradient id="window" x1="307" y1="172" x2="307" y2="602" gradientUnits="userSpaceOnUse">
      <stop stop-color="#F8DEAB"/>
      <stop offset="1" stop-color="#AF6144"/>
    </linearGradient>
    <linearGradient id="window2" x1="868" y1="138" x2="868" y2="596" gradientUnits="userSpaceOnUse">
      <stop stop-color="#FFDCA8"/>
      <stop offset="1" stop-color="#8F5565"/>
    </linearGradient>
  </defs>
</svg>
